<svg width="156" height="48" viewBox="0 0 156 48" fill="none" xmlns="http://www.w3.org/2000/svg">
<g filter="url(#filter0_d_22_770)">
<path d="M45.1992 30.6092C47.0609 26.7867 47.4974 22.3723 46.4234 18.2297C45.3493 14.0871 42.842 10.5143 39.3919 8.21031C35.9418 5.90631 31.7972 5.03686 27.7689 5.77206C23.7406 6.50727 20.1184 8.79423 17.611 12.1855C15.1036 15.5768 13.8914 19.8285 14.2116 24.1087C14.5317 28.3889 16.3611 32.3897 19.342 35.3283C22.3228 38.267 26.2406 39.9321 30.3288 39.998C34.4171 40.0638 38.3816 38.5256 41.4469 35.6842L33.302 25.9958C32.5343 26.7074 31.5414 27.0927 30.5175 27.0762C29.4936 27.0597 28.5125 26.6427 27.7659 25.9067C27.0194 25.1707 26.5612 24.1687 26.481 23.0968C26.4009 22.0248 26.7044 20.96 27.3324 20.1107C27.9604 19.2614 28.8675 18.6886 29.8764 18.5045C30.8853 18.3203 31.9233 18.5381 32.7873 19.1151C33.6514 19.6921 34.2793 20.5869 34.5483 21.6244C34.8173 22.6619 -33.1267 35.3284 32.7873 0L45.1992 30.6092Z" fill="#D9D9D9"/>
<path d="M31.3886 33.0438L32.0921 33.8807C31.5415 33.968 30.9841 34.0077 30.4254 33.9987C27.9203 33.9584 25.4653 32.9396 23.5543 31.0556C23.2296 30.7355 22.9247 30.3942 22.6413 30.0343C22.872 30.0068 23.1011 29.9788 23.3284 29.9504C23.4022 30.0278 23.4772 30.1041 23.5536 30.1795C25.37 31.9701 27.8139 33.0334 30.4209 33.0754C30.7458 33.0807 31.0686 33.0699 31.3886 33.0438ZM8.27756 18.1633C8.27816 18.163 8.29035 18.1679 8.31236 18.179C8.28797 18.1691 8.27697 18.1636 8.27756 18.1633Z" stroke="url(#paint0_linear_22_770)" stroke-width="12"/>
</g>
<path fill-rule="evenodd" clip-rule="evenodd" d="M55 10.0909C55 10.0407 55.0407 10 55.0909 10H155.909C155.959 10 156 10.0407 156 10.0909V10.0909C156 10.1411 155.959 10.1818 155.909 10.1818H55.0909C55.0407 10.1818 55 10.1411 55 10.0909V10.0909ZM56.9091 36.1818C55.8547 36.1818 55 37.0365 55 38.0909V38.0909C55 39.1453 55.8547 40 56.9091 40H154.091C155.145 40 156 39.1453 156 38.0909V38.0909C156 37.0365 155.145 36.1818 154.091 36.1818H56.9091ZM63.0431 11.5543C62.8625 11.2133 62.5082 11 62.1223 11V11C61.3249 11 60.8231 11.8593 61.215 12.5538L63.6842 16.9303C63.9254 17.3578 64.0521 17.8403 64.0521 18.3311V20.1129C64.0521 20.7033 64.5307 21.1818 65.121 21.1818V21.1818C65.7114 21.1818 66.1899 20.7033 66.1899 20.1129V18.3311C66.1899 17.8403 66.3166 17.3578 66.5578 16.9303L69.0271 12.5538C69.4189 11.8593 68.9171 11 68.1197 11V11C67.7338 11 67.3795 11.2133 67.199 11.5543L65.194 15.341C65.1797 15.368 65.1516 15.3849 65.121 15.3849V15.3849C65.0904 15.3849 65.0624 15.368 65.048 15.341L63.0431 11.5543ZM70.4668 20.8388C71.0303 21.1669 71.6981 21.331 72.4704 21.331C73.2426 21.331 73.9088 21.1669 74.469 20.8388C75.0324 20.5073 75.4666 20.0466 75.7715 19.4567C76.0764 18.8634 76.2289 18.1757 76.2289 17.3935C76.2289 16.6046 76.0764 15.9152 75.7715 15.3253C75.4666 14.732 75.0324 14.2713 74.469 13.9432C73.9088 13.6117 73.2426 13.446 72.4704 13.446C71.6981 13.446 71.0303 13.6117 70.4668 13.9432C69.9067 14.2713 69.4742 14.732 69.1692 15.3253C68.8643 15.9152 68.7119 16.6046 68.7119 17.3935C68.7119 18.1757 68.8643 18.8634 69.1692 19.4567C69.4742 20.0466 69.9067 20.5073 70.4668 20.8388ZM73.3603 19.392C73.125 19.5909 72.8316 19.6903 72.4803 19.6903C72.1257 19.6903 71.8274 19.5909 71.5854 19.392C71.3468 19.1899 71.1662 18.9148 71.0435 18.5668C70.9242 18.2188 70.8646 17.8227 70.8646 17.3786C70.8646 16.9344 70.9242 16.5384 71.0435 16.1903C71.1662 15.8423 71.3468 15.5672 71.5854 15.3651C71.8274 15.1629 72.1257 15.0618 72.4803 15.0618C72.8316 15.0618 73.125 15.1629 73.3603 15.3651C73.5956 15.5672 73.7729 15.8423 73.8923 16.1903C74.0149 16.5384 74.0762 16.9344 74.0762 17.3786C74.0762 17.8227 74.0149 18.2188 73.8923 18.5668C73.7729 18.9148 73.5956 19.1899 73.3603 19.392ZM83.142 13.5455C82.5572 13.5455 82.083 14.0196 82.083 14.6044V17.9304C82.0864 18.2718 82.0184 18.5585 81.8792 18.7905C81.7433 19.0225 81.5643 19.1982 81.3423 19.3175C81.1202 19.4335 80.8816 19.4915 80.6264 19.4915C80.2253 19.4915 79.9055 19.3606 79.6669 19.0987C79.4282 18.8369 79.3072 18.4806 79.3039 18.0298V14.6044C79.3039 14.0196 78.8298 13.5455 78.245 13.5455V13.5455C77.6601 13.5455 77.186 14.0196 77.186 14.6044V18.4077C77.1893 19.0043 77.2987 19.5163 77.5142 19.9439C77.7329 20.3714 78.0362 20.7012 78.424 20.9332C78.8117 21.1652 79.2608 21.2812 79.7713 21.2812C80.3446 21.2812 80.8302 21.1454 81.2279 20.8736C81.6199 20.6079 81.9027 20.2584 82.0762 19.8249C82.0834 19.8068 82.1009 19.7947 82.1204 19.7947V19.7947C82.1464 19.7947 82.1676 19.8159 82.1676 19.8419V20.4883C82.1676 20.8713 82.4781 21.1818 82.8611 21.1818H83.1843C83.7458 21.1818 84.2009 20.7266 84.2009 20.1651V14.6044C84.2009 14.0196 83.7268 13.5455 83.142 13.5455V13.5455ZM88.8184 15.1364C89.2152 15.1364 89.5368 14.8147 89.5368 14.418V14.2638C89.5368 13.8671 89.2152 13.5455 88.8184 13.5455V13.5455C88.4217 13.5455 88.1 13.2238 88.1 12.8271V12.6307C88.1 12.1255 87.6905 11.7159 87.1852 11.7159H86.8969C86.3917 11.7159 85.9821 12.1255 85.9821 12.6307V13.0234C85.9821 13.3117 85.7484 13.5455 85.4601 13.5455V13.5455C85.1718 13.5455 84.9381 13.7792 84.9381 14.0675V14.6143C84.9381 14.9026 85.1718 15.1364 85.4601 15.1364V15.1364C85.7484 15.1364 85.9821 15.3701 85.9821 15.6584V19.1136C85.9788 19.6141 86.0832 20.0284 86.2953 20.3565C86.5074 20.6847 86.8041 20.9266 87.1852 21.0824C87.5697 21.2382 88.0172 21.3061 88.5276 21.2862C88.8027 21.2763 89.0363 21.2481 89.2286 21.2017V21.2017C89.4841 21.1444 89.6346 20.8916 89.5805 20.6354L89.3911 19.7394C89.3643 19.6126 89.2413 19.5307 89.1142 19.5561V19.5561C89.0148 19.5727 88.9154 19.581 88.8159 19.581C88.6734 19.581 88.5475 19.5594 88.4381 19.5163C88.332 19.4732 88.2492 19.3987 88.1895 19.2926C88.1298 19.1832 88.1 19.0308 88.1 18.8352V15.8548C88.1 15.458 88.4217 15.1364 88.8184 15.1364V15.1364ZM91.7194 21.1818C92.3043 21.1818 92.7784 20.7077 92.7784 20.1229V16.767C92.7817 16.4389 92.8447 16.1589 92.9673 15.9268C93.0932 15.6915 93.2656 15.5125 93.4843 15.3899C93.7064 15.2673 93.9616 15.206 94.25 15.206C94.6808 15.206 95.0156 15.3369 95.2542 15.5987C95.4962 15.8606 95.6155 16.2268 95.6122 16.6974V20.1229C95.6122 20.7077 96.0863 21.1818 96.6711 21.1818V21.1818C97.256 21.1818 97.7301 20.7077 97.7301 20.1229V16.3196C97.7334 15.723 97.624 15.2109 97.402 14.7834C97.1832 14.3525 96.875 14.0227 96.4772 13.794C96.0828 13.562 95.6205 13.446 95.0902 13.446C94.5102 13.446 94.0279 13.5753 93.6434 13.8338C93.2687 14.0826 92.9947 14.4242 92.8215 14.8588C92.8134 14.8792 92.7937 14.8928 92.7717 14.8928V14.8928C92.7425 14.8928 92.7187 14.869 92.7187 14.8398V12.0291C92.7187 11.4608 92.258 11 91.6896 11V11C91.1212 11 90.6605 11.4608 90.6605 12.0291V20.1229C90.6605 20.7077 91.1346 21.1818 91.7194 21.1818V21.1818ZM105.221 12.0639C105.221 11.4763 104.745 11 104.157 11V11C103.57 11 103.093 11.4763 103.093 12.0639V18.0994C103.093 18.4242 103.045 18.6977 102.949 18.9197C102.853 19.1418 102.712 19.3108 102.527 19.4268C102.344 19.5395 102.121 19.5959 101.855 19.5959C101.603 19.5959 101.385 19.5462 101.199 19.4467C101.017 19.344 100.873 19.1982 100.767 19.0092V19.0092C100.579 18.6576 100.284 18.3182 99.8858 18.3182H99.5417C98.9433 18.3182 98.427 18.8148 98.605 19.3861C98.6753 19.6117 98.771 19.8175 98.8923 20.0036C99.184 20.4477 99.5784 20.7791 100.076 20.9979C100.576 21.2133 101.133 21.321 101.746 21.321C102.435 21.321 103.04 21.1901 103.561 20.9283C104.081 20.6664 104.487 20.2936 104.779 19.8097C105.074 19.3258 105.221 18.7557 105.221 18.0994V12.0639ZM107.988 20.8388C108.551 21.1669 109.219 21.331 109.991 21.331C110.764 21.331 111.43 21.1669 111.99 20.8388C112.553 20.5073 112.988 20.0466 113.293 19.4567C113.598 18.8634 113.75 18.1757 113.75 17.3935C113.75 16.6046 113.598 15.9152 113.293 15.3253C112.988 14.732 112.553 14.2713 111.99 13.9432C111.43 13.6117 110.764 13.446 109.991 13.446C109.219 13.446 108.551 13.6117 107.988 13.9432C107.428 14.2713 106.995 14.732 106.69 15.3253C106.385 15.9152 106.233 16.6046 106.233 17.3935C106.233 18.1757 106.385 18.8634 106.69 19.4567C106.995 20.0466 107.428 20.5073 107.988 20.8388ZM110.881 19.392C110.646 19.5909 110.353 19.6903 110.001 19.6903C109.647 19.6903 109.348 19.5909 109.107 19.392C108.868 19.1899 108.687 18.9148 108.565 18.5668C108.445 18.2188 108.386 17.8227 108.386 17.3786C108.386 16.9344 108.445 16.5384 108.565 16.1903C108.687 15.8423 108.868 15.5672 109.107 15.3651C109.348 15.1629 109.647 15.0618 110.001 15.0618C110.353 15.0618 110.646 15.1629 110.881 15.3651C111.117 15.5672 111.294 15.8423 111.413 16.1903C111.536 16.5384 111.597 16.9344 111.597 17.3786C111.597 17.8227 111.536 18.2188 111.413 18.5668C111.294 18.9148 111.117 19.1899 110.881 19.392ZM115.806 11C115.221 11 114.747 11.4741 114.747 12.0589V20.1378C114.747 20.7144 115.214 21.1818 115.791 21.1818H116.223C116.561 21.1818 116.835 20.908 116.835 20.5703V20.0162C116.835 19.9845 116.861 19.9588 116.892 19.9588V19.9588C116.915 19.9588 116.935 19.972 116.945 19.9924C117.04 20.1931 117.174 20.3924 117.347 20.5902C117.529 20.7957 117.763 20.9664 118.048 21.1023C118.336 21.2382 118.686 21.3061 119.097 21.3061C119.677 21.3061 120.201 21.157 120.668 20.8587C121.139 20.5571 121.51 20.1146 121.782 19.5312C122.057 18.9446 122.194 18.2254 122.194 17.3736C122.194 16.4986 122.053 15.7711 121.772 15.1911C121.49 14.6077 121.114 14.1719 120.643 13.8835C120.173 13.5919 119.659 13.446 119.102 13.446C118.674 13.446 118.317 13.5189 118.028 13.6648C117.743 13.8073 117.511 13.9863 117.332 14.2017C117.163 14.4059 117.032 14.607 116.94 14.8051C116.933 14.8191 116.92 14.8281 116.904 14.8281V14.8281C116.882 14.8281 116.865 14.8105 116.865 14.7889V12.0589C116.865 11.4741 116.391 11 115.806 11V11ZM117.009 18.5518C116.883 18.2138 116.82 17.8177 116.82 17.3636C116.82 16.9096 116.883 16.5152 117.009 16.1804C117.135 15.8456 117.316 15.5871 117.551 15.4048C117.79 15.2225 118.081 15.1314 118.426 15.1314C118.774 15.1314 119.067 15.2259 119.306 15.4148C119.544 15.6037 119.725 15.8655 119.848 16.2003C119.97 16.535 120.032 16.9228 120.032 17.3636C120.032 17.8078 119.969 18.2005 119.843 18.5419C119.72 18.88 119.54 19.1451 119.301 19.3374C119.062 19.5263 118.771 19.6207 118.426 19.6207C118.084 19.6207 117.794 19.5279 117.556 19.3423C117.317 19.1534 117.135 18.8899 117.009 18.5518ZM62.9615 33.9999C63.5559 33.9999 64.0378 33.518 64.0378 32.9236V24.8945C64.0378 24.3 63.5559 23.8181 62.9615 23.8181V23.8181C62.367 23.8181 61.8851 24.3 61.8851 24.8945V32.9236C61.8851 33.518 62.367 33.9999 62.9615 33.9999V33.9999ZM66.5871 33.6768C67.0578 33.9751 67.5831 34.1242 68.1631 34.1242C68.5741 34.1242 68.9221 34.0563 69.2071 33.9204C69.4955 33.7845 69.7292 33.6138 69.9081 33.4083C70.0814 33.2098 70.2173 33.0098 70.3157 32.8083C70.325 32.7892 70.3443 32.7769 70.3655 32.7769V32.7769C70.3957 32.7769 70.4202 32.8014 70.4202 32.8316V33.3884C70.4202 33.7262 70.694 33.9999 71.0317 33.9999H71.4643C72.0409 33.9999 72.5083 33.5325 72.5083 32.9559V24.8746C72.5083 24.2911 72.0353 23.8181 71.4518 23.8181V23.8181C70.8684 23.8181 70.3954 24.2911 70.3954 24.8746V27.607C70.3954 27.6287 70.3778 27.6462 70.3561 27.6462V27.6462C70.3406 27.6462 70.3267 27.6372 70.3202 27.6232C70.2277 27.4251 70.0954 27.224 69.9231 27.0198C69.7474 26.8044 69.5154 26.6254 69.227 26.4829C68.942 26.3371 68.5857 26.2641 68.1581 26.2641C67.598 26.2641 67.0826 26.41 66.612 26.7016C66.1446 26.99 65.7701 27.4258 65.4884 28.0092C65.2067 28.5892 65.0658 29.3167 65.0658 30.1917C65.0658 31.0435 65.2017 31.7627 65.4735 32.3494C65.7486 32.9327 66.1198 33.3752 66.5871 33.6768ZM69.6993 32.1604C69.464 32.3461 69.1757 32.4389 68.8343 32.4389C68.4863 32.4389 68.1929 32.3444 67.9543 32.1555C67.719 31.9632 67.5384 31.6981 67.4124 31.36C67.2898 31.0186 67.2285 30.6259 67.2285 30.1818C67.2285 29.7409 67.2898 29.3532 67.4124 29.0184C67.535 28.6836 67.7157 28.4218 67.9543 28.2329C68.1929 28.044 68.4863 27.9495 68.8343 27.9495C69.1757 27.9495 69.4657 28.0407 69.7043 28.2229C69.9429 28.4052 70.1252 28.6638 70.2512 28.9985C70.3771 29.3333 70.4401 29.7277 70.4401 30.1818C70.4401 30.6358 70.3755 31.0319 70.2462 31.37C70.1203 31.708 69.938 31.9715 69.6993 32.1604ZM74.2223 33.7812C74.4577 34.0132 74.7394 34.1292 75.0675 34.1292C75.2829 34.1292 75.4802 34.0762 75.6591 33.9701C75.8381 33.8607 75.9823 33.7166 76.0917 33.5376C76.2043 33.3553 76.2607 33.1548 76.2607 32.936C76.2607 32.6112 76.1414 32.3328 75.9027 32.1008C75.6641 31.8688 75.3857 31.7528 75.0675 31.7528C74.7394 31.7528 74.4577 31.8688 74.2223 32.1008C73.9903 32.3328 73.8743 32.6112 73.8743 32.936C73.8743 33.2641 73.9903 33.5459 74.2223 33.7812Z" fill="url(#paint1_linear_22_770)"/>
<defs>
<filter id="filter0_d_22_770" x="0" y="0" width="51" height="48" filterUnits="userSpaceOnUse" color-interpolation-filters="sRGB">
<feFlood flood-opacity="0" result="BackgroundImageFix"/>
<feColorMatrix in="SourceAlpha" type="matrix" values="0 0 0 0 0 0 0 0 0 0 0 0 0 0 0 0 0 0 127 0" result="hardAlpha"/>
<feOffset dy="4"/>
<feGaussianBlur stdDeviation="2"/>
<feComposite in2="hardAlpha" operator="out"/>
<feColorMatrix type="matrix" values="0 0 0 0 0 0 0 0 0 0 0 0 0 0 0 0 0 0 0.25 0"/>
<feBlend mode="normal" in2="BackgroundImageFix" result="effect1_dropShadow_22_770"/>
<feBlend mode="normal" in="SourceGraphic" in2="effect1_dropShadow_22_770" result="shape"/>
</filter>
<linearGradient id="paint0_linear_22_770" x1="30.5806" y1="5.51714" x2="30.5806" y2="39.9997" gradientUnits="userSpaceOnUse">
<stop stop-color="#E63946"/>
<stop offset="1" stop-color="#1D3557"/>
</linearGradient>
<linearGradient id="paint1_linear_22_770" x1="130.719" y1="13.7498" x2="62.0223" y2="45.9429" gradientUnits="userSpaceOnUse">
<stop stop-color="#E63A47"/>
<stop offset="0.650515" stop-color="#253657"/>
<stop offset="1" stop-color="white"/>
</linearGradient>
</defs>
</svg>
