<svg width="101" height="29" viewBox="0 0 101 29" fill="none" xmlns="http://www.w3.org/2000/svg">
<path fill-rule="evenodd" clip-rule="evenodd" d="M2 29C0.895431 29 0 28.1046 0 27V27C0 25.8954 0.89543 25 2 25H99C100.105 25 101 25.8954 101 27V27C101 28.1046 100.105 29 99 29H2ZM8.04307 0.554318C7.86251 0.21329 7.50823 0 7.12235 0V0C6.32494 0 5.82315 0.859262 6.21498 1.55376L8.68422 5.9303C8.92541 6.35778 9.05213 6.84028 9.05213 7.3311V9.11293C9.05213 9.70326 9.53069 10.1818 10.121 10.1818V10.1818C10.7114 10.1818 11.1899 9.70326 11.1899 9.11293V7.3311C11.1899 6.84028 11.3166 6.35777 11.5578 5.9303L14.0271 1.55376C14.4189 0.859262 13.9171 0 13.1197 0V0C12.7338 0 12.3795 0.213291 12.199 0.554319L10.194 4.34101C10.1797 4.36804 10.1516 4.38494 10.121 4.38494V4.38494C10.0904 4.38494 10.0624 4.36804 10.048 4.34101L8.04307 0.554318ZM15.4668 9.83878C16.0303 10.1669 16.6981 10.331 17.4704 10.331C18.2426 10.331 18.9088 10.1669 19.469 9.83878C20.0324 9.50734 20.4666 9.04664 20.7715 8.45668C21.0764 7.8634 21.2289 7.17566 21.2289 6.39347C21.2289 5.60464 21.0764 4.91525 20.7715 4.32528C20.4666 3.73201 20.0324 3.27131 19.469 2.94318C18.9088 2.61174 18.2426 2.44602 17.4704 2.44602C16.6981 2.44602 16.0303 2.61174 15.4668 2.94318C14.9067 3.27131 14.4742 3.73201 14.1692 4.32528C13.8643 4.91525 13.7119 5.60464 13.7119 6.39347C13.7119 7.17566 13.8643 7.8634 14.1692 8.45668C14.4742 9.04664 14.9067 9.50734 15.4668 9.83878ZM18.3603 8.39205C18.125 8.59091 17.8316 8.69034 17.4803 8.69034C17.1257 8.69034 16.8274 8.59091 16.5854 8.39205C16.3468 8.18987 16.1662 7.91477 16.0435 7.56676C15.9242 7.21875 15.8646 6.82268 15.8646 6.37855C15.8646 5.93442 15.9242 5.53835 16.0435 5.19034C16.1662 4.84233 16.3468 4.56723 16.5854 4.36506C16.8274 4.16288 17.1257 4.06179 17.4803 4.06179C17.8316 4.06179 18.125 4.16288 18.3603 4.36506C18.5956 4.56723 18.7729 4.84233 18.8923 5.19034C19.0149 5.53835 19.0762 5.93442 19.0762 6.37855C19.0762 6.82268 19.0149 7.21875 18.8923 7.56676C18.7729 7.91477 18.5956 8.18987 18.3603 8.39205ZM28.142 2.54545C27.5572 2.54545 27.083 3.01956 27.083 3.6044V6.9304C27.0864 7.27178 27.0184 7.55848 26.8792 7.79048C26.7433 8.02249 26.5643 8.19815 26.3423 8.31747C26.1202 8.43348 25.8816 8.49148 25.6264 8.49148C25.2253 8.49148 24.9055 8.36056 24.6669 8.09872C24.4282 7.83688 24.3072 7.48059 24.3039 7.02983V3.6044C24.3039 3.01956 23.8298 2.54545 23.245 2.54545V2.54545C22.6601 2.54545 22.186 3.01956 22.186 3.6044V7.40767C22.1893 8.00426 22.2987 8.51634 22.5142 8.94389C22.7329 9.37145 23.0362 9.70123 23.424 9.93324C23.8117 10.1652 24.2608 10.2812 24.7713 10.2812C25.3446 10.2812 25.8302 10.1454 26.2279 9.87358C26.6199 9.60793 26.9027 9.25837 27.0762 8.8249C27.0834 8.80679 27.1009 8.79474 27.1204 8.79474V8.79474C27.1464 8.79474 27.1676 8.81586 27.1676 8.84191V9.48828C27.1676 9.87131 27.4781 10.1818 27.8611 10.1818H28.1843C28.7458 10.1818 29.2009 9.72663 29.2009 9.16513V3.6044C29.2009 3.01956 28.7268 2.54545 28.142 2.54545V2.54545ZM33.8184 4.13636C34.2152 4.13636 34.5368 3.81473 34.5368 3.41797V3.26385C34.5368 2.86709 34.2152 2.54545 33.8184 2.54545V2.54545C33.4217 2.54545 33.1 2.22382 33.1 1.82706V1.63068C33.1 1.12547 32.6905 0.715909 32.1852 0.715909H31.8969C31.3917 0.715909 30.9821 1.12547 30.9821 1.63068V2.02344C30.9821 2.31174 30.7484 2.54545 30.4601 2.54545V2.54545C30.1718 2.54545 29.9381 2.77917 29.9381 3.06747V3.61435C29.9381 3.90265 30.1718 4.13636 30.4601 4.13636V4.13636C30.7484 4.13636 30.9821 4.37008 30.9821 4.65838V8.11364C30.9788 8.61411 31.0832 9.02841 31.2953 9.35653C31.5074 9.68466 31.8041 9.92661 32.1852 10.0824C32.5697 10.2382 33.0172 10.3061 33.5276 10.2862C33.8027 10.2763 34.0363 10.2481 34.2286 10.2017V10.2017C34.4841 10.1444 34.6346 9.89163 34.5805 9.6354L34.3911 8.73936C34.3643 8.6126 34.2413 8.5307 34.1142 8.55611V8.55611C34.0148 8.57268 33.9154 8.58097 33.8159 8.58097C33.6734 8.58097 33.5475 8.55942 33.4381 8.51634C33.332 8.47325 33.2492 8.39867 33.1895 8.29261C33.1298 8.18324 33.1 8.03078 33.1 7.83523V4.85476C33.1 4.458 33.4217 4.13636 33.8184 4.13636V4.13636ZM36.7194 10.1818C37.3043 10.1818 37.7784 9.70771 37.7784 9.12287V5.76705C37.7817 5.43892 37.8447 5.15885 37.9673 4.92685C38.0932 4.69152 38.2656 4.51255 38.4843 4.38991C38.7064 4.26728 38.9616 4.20597 39.25 4.20597C39.6808 4.20597 40.0156 4.33688 40.2542 4.59872C40.4962 4.86056 40.6155 5.2268 40.6122 5.69744V9.12287C40.6122 9.70771 41.0863 10.1818 41.6711 10.1818V10.1818C42.256 10.1818 42.7301 9.70771 42.7301 9.12287V5.3196C42.7334 4.72301 42.624 4.21094 42.402 3.78338C42.1832 3.35251 41.875 3.02273 41.4772 2.79403C41.0828 2.56203 40.6205 2.44602 40.0902 2.44602C39.5102 2.44602 39.0279 2.57528 38.6434 2.83381C38.2687 3.08256 37.9947 3.42421 37.8215 3.85875C37.8134 3.87916 37.7937 3.89276 37.7717 3.89276V3.89276C37.7425 3.89276 37.7187 3.86902 37.7187 3.83975V1.02912C37.7187 0.460753 37.258 0 36.6896 0V0C36.1212 0 35.6605 0.460752 35.6605 1.02912V9.12287C35.6605 9.70771 36.1346 10.1818 36.7194 10.1818V10.1818ZM50.2211 1.06392C50.2211 0.476334 49.7448 0 49.1572 0V0C48.5696 0 48.0933 0.476335 48.0933 1.06392V7.09943C48.0933 7.42424 48.0452 7.69768 47.9491 7.91974C47.853 8.14181 47.7121 8.31084 47.5265 8.42685C47.3442 8.53954 47.1205 8.59588 46.8554 8.59588C46.6035 8.59588 46.3847 8.54617 46.1991 8.44673C46.0168 8.34399 45.8726 8.19815 45.7666 8.00923V8.00923C45.5787 7.65762 45.2844 7.31818 44.8858 7.31818H44.5417C43.9433 7.31818 43.427 7.81481 43.605 8.38614C43.6753 8.61171 43.771 8.81752 43.8923 9.00355C44.184 9.44768 44.5784 9.77912 45.0755 9.99787C45.576 10.2133 46.1328 10.321 46.746 10.321C47.4354 10.321 48.0403 10.1901 48.5606 9.92827C49.081 9.66643 49.487 9.29356 49.7787 8.80966C50.0736 8.32576 50.2211 7.75568 50.2211 7.09943V1.06392ZM52.9879 9.83878C53.5514 10.1669 54.2192 10.331 54.9915 10.331C55.7637 10.331 56.4299 10.1669 56.9901 9.83878C57.5535 9.50734 57.9877 9.04664 58.2926 8.45668C58.5975 7.8634 58.75 7.17566 58.75 6.39347C58.75 5.60464 58.5975 4.91525 58.2926 4.32528C57.9877 3.73201 57.5535 3.27131 56.9901 2.94318C56.4299 2.61174 55.7637 2.44602 54.9915 2.44602C54.2192 2.44602 53.5514 2.61174 52.9879 2.94318C52.4278 3.27131 51.9953 3.73201 51.6903 4.32528C51.3854 4.91525 51.2329 5.60464 51.2329 6.39347C51.2329 7.17566 51.3854 7.8634 51.6903 8.45668C51.9953 9.04664 52.4278 9.50734 52.9879 9.83878ZM55.8814 8.39205C55.6461 8.59091 55.3527 8.69034 55.0014 8.69034C54.6468 8.69034 54.3485 8.59091 54.1065 8.39205C53.8679 8.18987 53.6873 7.91477 53.5646 7.56676C53.4453 7.21875 53.3856 6.82268 53.3856 6.37855C53.3856 5.93442 53.4453 5.53835 53.5646 5.19034C53.6873 4.84233 53.8679 4.56723 54.1065 4.36506C54.3485 4.16288 54.6468 4.06179 55.0014 4.06179C55.3527 4.06179 55.6461 4.16288 55.8814 4.36506C56.1167 4.56723 56.294 4.84233 56.4133 5.19034C56.536 5.53835 56.5973 5.93442 56.5973 6.37855C56.5973 6.82268 56.536 7.21875 56.4133 7.56676C56.294 7.91477 56.1167 8.18987 55.8814 8.39205ZM60.8058 0C60.221 0 59.7469 0.474107 59.7469 1.05895V9.13778C59.7469 9.71439 60.2143 10.1818 60.7909 10.1818H61.2235C61.5612 10.1818 61.835 9.90804 61.835 9.57031V9.01624C61.835 8.98452 61.8607 8.95881 61.8924 8.95881V8.95881C61.9149 8.95881 61.9353 8.97202 61.945 8.99239C62.0404 9.19314 62.1744 9.39242 62.347 9.5902C62.5293 9.79569 62.763 9.96638 63.048 10.1023C63.3364 10.2382 63.6861 10.3061 64.097 10.3061C64.6771 10.3061 65.2007 10.157 65.6681 9.85867C66.1387 9.55706 66.5099 9.11458 66.7817 8.53125C67.0568 7.9446 67.1943 7.22538 67.1943 6.37358C67.1943 5.49858 67.0535 4.77107 66.7718 4.19105C66.49 3.60772 66.1138 3.17188 65.6432 2.88352C65.1726 2.59186 64.6588 2.44602 64.102 2.44602C63.6745 2.44602 63.3165 2.51894 63.0281 2.66477C62.7431 2.80729 62.5111 2.98627 62.3321 3.2017C62.163 3.4059 62.0323 3.60703 61.94 3.80509C61.9335 3.81908 61.9195 3.82812 61.9041 3.82812V3.82812C61.8824 3.82812 61.8648 3.81054 61.8648 3.78885V1.05895C61.8648 0.474107 61.3907 0 60.8058 0V0ZM62.009 7.55185C61.883 7.21378 61.8201 6.81771 61.8201 6.36364C61.8201 5.90956 61.883 5.51515 62.009 5.1804C62.1349 4.84564 62.3156 4.58712 62.5509 4.40483C62.7895 4.22254 63.0812 4.13139 63.4259 4.13139C63.7739 4.13139 64.0672 4.22585 64.3058 4.41477C64.5445 4.60369 64.7251 4.86553 64.8477 5.20028C64.9704 5.53504 65.0317 5.92282 65.0317 6.36364C65.0317 6.80777 64.9687 7.20052 64.8428 7.5419C64.7201 7.87997 64.5395 8.14512 64.3009 8.33736C64.0622 8.52628 63.7706 8.62074 63.4259 8.62074C63.0845 8.62074 62.7945 8.52794 62.5558 8.34233C62.3172 8.15341 62.1349 7.88991 62.009 7.55185ZM7.96149 22.9999C8.55594 22.9999 9.03784 22.518 9.03784 21.9236V13.8945C9.03784 13.3 8.55594 12.8181 7.96149 12.8181V12.8181C7.36704 12.8181 6.88514 13.3 6.88514 13.8945V21.9236C6.88514 22.518 7.36704 22.9999 7.96149 22.9999V22.9999ZM11.5871 22.6768C12.0578 22.9751 12.5831 23.1242 13.1631 23.1242C13.5741 23.1242 13.9221 23.0563 14.2071 22.9204C14.4955 22.7845 14.7292 22.6138 14.9081 22.4083C15.0814 22.2098 15.2173 22.0098 15.3157 21.8083C15.325 21.7892 15.3443 21.7769 15.3655 21.7769V21.7769C15.3957 21.7769 15.4202 21.8014 15.4202 21.8316V22.3884C15.4202 22.7262 15.694 22.9999 16.0317 22.9999H16.4643C17.0409 22.9999 17.5083 22.5325 17.5083 21.9559V13.8746C17.5083 13.2911 17.0353 12.8181 16.4518 12.8181V12.8181C15.8684 12.8181 15.3954 13.2911 15.3954 13.8746V16.607C15.3954 16.6287 15.3778 16.6462 15.3561 16.6462V16.6462C15.3406 16.6462 15.3267 16.6372 15.3202 16.6232C15.2277 16.4251 15.0954 16.224 14.9231 16.0198C14.7474 15.8044 14.5154 15.6254 14.227 15.4829C13.942 15.3371 13.5857 15.2641 13.1581 15.2641C12.598 15.2641 12.0826 15.41 11.612 15.7016C11.1446 15.99 10.7701 16.4258 10.4884 17.0092C10.2067 17.5892 10.0658 18.3167 10.0658 19.1917C10.0658 20.0435 10.2017 20.7627 10.4735 21.3494C10.7486 21.9327 11.1198 22.3752 11.5871 22.6768ZM14.6993 21.1604C14.464 21.3461 14.1757 21.4389 13.8343 21.4389C13.4863 21.4389 13.1929 21.3444 12.9543 21.1555C12.719 20.9632 12.5384 20.6981 12.4124 20.36C12.2898 20.0186 12.2285 19.6259 12.2285 19.1818C12.2285 18.7409 12.2898 18.3532 12.4124 18.0184C12.535 17.6836 12.7157 17.4218 12.9543 17.2329C13.1929 17.044 13.4863 16.9495 13.8343 16.9495C14.1757 16.9495 14.4657 17.0407 14.7043 17.2229C14.9429 17.4052 15.1252 17.6638 15.2512 17.9985C15.3771 18.3333 15.4401 18.7277 15.4401 19.1818C15.4401 19.6358 15.3755 20.0319 15.2462 20.37C15.1203 20.708 14.938 20.9715 14.6993 21.1604ZM19.2223 22.7812C19.4577 23.0132 19.7394 23.1292 20.0675 23.1292C20.2829 23.1292 20.4802 23.0762 20.6591 22.9701C20.8381 22.8607 20.9823 22.7166 21.0917 22.5376C21.2043 22.3553 21.2607 22.1548 21.2607 21.936C21.2607 21.6112 21.1414 21.3328 20.9027 21.1008C20.6641 20.8688 20.3857 20.7528 20.0675 20.7528C19.7394 20.7528 19.4577 20.8688 19.2223 21.1008C18.9903 21.3328 18.8743 21.6112 18.8743 21.936C18.8743 22.2641 18.9903 22.5459 19.2223 22.7812Z" fill="url(#paint0_linear_22_767)"/>
<defs>
<linearGradient id="paint0_linear_22_767" x1="75.7192" y1="2.74982" x2="7.02233" y2="34.9429" gradientUnits="userSpaceOnUse">
<stop stop-color="#E63A47"/>
<stop offset="0.650515" stop-color="#253657"/>
<stop offset="1" stop-color="white"/>
</linearGradient>
</defs>
</svg>
